<svg xmlns="http://www.w3.org/2000/svg" viewBox="0 0 108.15 28.00" fill="none">
  <g transform="translate(0.8479,25.3882) scale(0.015473,-0.015473)" fill="currentColor">
    <path d="M96 0V1490H1144V1164H500V828H1080V510H500V0Z"/>
    <path transform="translate(1134.56,0)" d="M738 -18Q546 -18 401.5 49.5Q257 117 176.5 241.5Q96 366 96 536V1490H500V570Q500 466 567.5 399.0Q635 332 738 332Q843 332 910.5 399.0Q978 466 978 570V1490H1382V536Q1382 366 1301.0 241.5Q1220 117 1075.0 49.5Q930 -18 738 -18Z"/>
    <path transform="translate(2551.12,0)" d="M56 1164V1490H1350V1164H905V0H501V1164Z"/>
    <path transform="translate(3895.68,0)" d="M96 0V1490H738Q904 1490 1028.5 1429.5Q1153 1369 1222.5 1255.5Q1292 1142 1292 984Q1292 829 1224.5 721.0Q1157 613 1038 556L1342 0H902L640 492H500V0ZM500 806H642Q749 806 809.5 847.0Q870 888 870 984Q870 1079 809.5 1122.5Q749 1166 642 1166H500Z"/>
    <path transform="translate(5202.24,0)" d="M46 0 529 1490H1081L1582 0H1124L1038 286H580L498 0ZM666 588H948Q907 724 870.5 868.5Q834 1013 801 1159Q770 1013 737.5 868.5Q705 724 666 588Z"/>
  </g>
</svg>
